<?xml version="1.0" encoding="UTF-8"?>
<!DOCTYPE svg PUBLIC "-//W3C//DTD SVG 1.1//EN" "http://www.w3.org/Graphics/SVG/1.1/DTD/svg11.dtd">
<svg xmlns="http://www.w3.org/2000/svg" version="1.1" width="209px" height="93px" style="shape-rendering:geometricPrecision; text-rendering:geometricPrecision; image-rendering:optimizeQuality; fill-rule:evenodd; clip-rule:evenodd" xmlns:xlink="http://www.w3.org/1999/xlink">
<g><path style="opacity:1" fill="#1bccad" d="M 61.5,-0.5 C 62.5,-0.5 63.5,-0.5 64.5,-0.5C 64.5,16.1667 64.5,32.8333 64.5,49.5C 74.5,49.5 84.5,49.5 94.5,49.5C 94.5,47.8333 94.5,46.1667 94.5,44.5C 88.7945,44.8288 83.1278,44.4954 77.5,43.5C 76.2465,40.8061 75.2465,38.1394 74.5,35.5C 75.4382,23.5375 75.7715,11.5375 75.5,-0.5C 76.8333,-0.5 78.1667,-0.5 79.5,-0.5C 79.5,-0.166667 79.5,0.166667 79.5,0.5C 79.5,14.5 79.5,28.5 79.5,42.5C 84.8333,42.5 90.1667,42.5 95.5,42.5C 95.5,46.8333 95.5,51.1667 95.5,55.5C 84.5,55.5 73.5,55.5 62.5,55.5C 63.7137,37.669 63.3804,20.0023 61.5,2.5C 61.5,1.5 61.5,0.5 61.5,-0.5 Z"/></g>
<g><path style="opacity:1" fill="#17d8b5" d="M 64.5,-0.5 C 66.1667,-0.5 67.8333,-0.5 69.5,-0.5C 68.7416,12.222 69.7416,24.722 72.5,37C 70.5724,39.7329 71.2391,40.8995 74.5,40.5C 74.5,38.8333 74.5,37.1667 74.5,35.5C 75.2465,38.1394 76.2465,40.8061 77.5,43.5C 83.1278,44.4954 88.7945,44.8288 94.5,44.5C 94.5,46.1667 94.5,47.8333 94.5,49.5C 84.5,49.5 74.5,49.5 64.5,49.5C 64.5,32.8333 64.5,16.1667 64.5,-0.5 Z"/></g>
<g><path style="opacity:1" fill="#16d9b5" d="M 69.5,-0.5 C 71.5,-0.5 73.5,-0.5 75.5,-0.5C 75.7715,11.5375 75.4382,23.5375 74.5,35.5C 74.5,37.1667 74.5,38.8333 74.5,40.5C 71.2391,40.8995 70.5724,39.7329 72.5,37C 69.7416,24.722 68.7416,12.222 69.5,-0.5 Z"/></g>
<g><path style="opacity:1" fill="#1fcfaf" d="M 119.5,-0.5 C 128.167,-0.5 136.833,-0.5 145.5,-0.5C 145.5,-0.166667 145.5,0.166667 145.5,0.5C 144.515,4.63441 144.182,8.96775 144.5,13.5C 138.158,13.3338 131.825,13.5005 125.5,14C 121.47,16.2557 118.47,19.4223 116.5,23.5C 116.09,19.6133 115.09,15.9466 113.5,12.5C 123.451,12.8383 133.451,12.8383 143.5,12.5C 143.037,9.51763 142.704,6.51763 142.5,3.5C 137.821,3.66582 133.155,3.49915 128.5,3C 127.975,2.30762 127.308,1.80762 126.5,1.5C 122.889,2.26182 119.222,2.76182 115.5,3C 116.938,3.21893 118.271,3.71893 119.5,4.5C 117.046,6.8209 114.213,7.15424 111,5.5C 109.594,6.41382 108.094,7.08049 106.5,7.5C 109.855,3.12622 114.188,0.459551 119.5,-0.5 Z"/></g>
<g><path style="opacity:0.259" fill="#1b201e" d="M 20.5,-0.5 C 25.5,-0.5 30.5,-0.5 35.5,-0.5C 35.5,0.166667 35.8333,0.5 36.5,0.5C 37.1667,1.5 37.8333,2.5 38.5,3.5C 36.4029,4.35312 34.4029,4.35312 32.5,3.5C 29.9365,3.73703 29.9365,4.23703 32.5,5C 29.7724,6.08623 27.1057,6.41957 24.5,6C 21.9688,9.35751 19.3021,12.5242 16.5,15.5C 17.2271,13.0462 18.2271,10.7128 19.5,8.5C 20.8333,7.83333 21.8333,6.83333 22.5,5.5C 26.3238,3.83772 30.3238,2.67106 34.5,2C 28.3616,1.27041 22.3616,1.77041 16.5,3.5C 14.2048,4.47456 12.2048,5.80789 10.5,7.5C 9.20577,8.2899 8.0391,9.2899 7,10.5C 6.61742,9.94404 6.11742,9.61071 5.5,9.5C 9.40931,4.38888 14.4093,1.05554 20.5,-0.5 Z"/></g>
<g><path style="opacity:0.115" fill="#010303" d="M 36.5,0.5 C 43.752,0.551909 49.5854,3.55191 54,9.5C 54.521,12.8742 55.8543,15.8742 58,18.5C 62.822,34.3654 58.6554,47.1988 45.5,57C 30.1644,63.7104 16.6644,61.2104 5,49.5C 4.20858,48.255 3.70858,46.9217 3.5,45.5C 3.83333,45.5 4.16667,45.5 4.5,45.5C 4.83333,46.5 5.5,47.1667 6.5,47.5C 9.49715,52.1859 13.8305,55.1859 19.5,56.5C 31.6515,59.3385 41.6515,56.0052 49.5,46.5C 52.2011,43.7647 53.8678,40.4314 54.5,36.5C 56.9853,27.5549 55.3187,19.5549 49.5,12.5C 50.2389,12.631 50.9056,12.4643 51.5,12C 48.9576,9.19611 46.2909,6.52945 43.5,4C 41.8659,3.50649 40.1992,3.33982 38.5,3.5C 37.8333,2.5 37.1667,1.5 36.5,0.5 Z"/></g>
<g><path style="opacity:0.125" fill="#040a09" d="M 79.5,0.5 C 80.8333,0.5 82.1667,0.5 83.5,0.5C 83.5,13.8333 83.5,27.1667 83.5,40.5C 88.0323,40.1818 92.3656,40.5151 96.5,41.5C 96.5,41.8333 96.5,42.1667 96.5,42.5C 96.1667,42.5 95.8333,42.5 95.5,42.5C 90.1667,42.5 84.8333,42.5 79.5,42.5C 79.5,28.5 79.5,14.5 79.5,0.5 Z"/></g>
<g><path style="opacity:0.121" fill="#070e0d" d="M 145.5,0.5 C 146.833,0.5 148.167,0.5 149.5,0.5C 149.805,5.76162 149.471,10.9283 148.5,16C 141.579,17.2189 134.579,17.8855 127.5,18C 118.167,25.6667 118.167,33.3333 127.5,41C 128.901,41.4101 130.234,41.9101 131.5,42.5C 125.233,44.115 120.733,41.7816 118,35.5C 116.957,32.2432 116.457,28.9099 116.5,25.5C 116.5,24.8333 116.5,24.1667 116.5,23.5C 118.47,19.4223 121.47,16.2557 125.5,14C 131.825,13.5005 138.158,13.3338 144.5,13.5C 144.182,8.96775 144.515,4.63441 145.5,0.5 Z"/></g>
<g><path style="opacity:0.131" fill="#010202" d="M 184.5,0.5 C 186.144,0.286495 187.644,0.619828 189,1.5C 195.557,20.6663 201.39,39.9996 206.5,59.5C 187.167,59.5 167.833,59.5 148.5,59.5C 148.5,58.5 148.5,57.5 148.5,56.5C 166.512,56.8329 184.512,56.4995 202.5,55.5C 202.006,53.9745 201.339,52.6412 200.5,51.5C 199.703,47.7768 198.703,44.1101 197.5,40.5C 194.879,31.6358 191.879,22.9692 188.5,14.5C 187.475,9.73307 186.142,5.0664 184.5,0.5 Z"/></g>
<g><path style="opacity:1" fill="#1ecaab" d="M 165.5,-0.5 C 170.833,-0.5 176.167,-0.5 181.5,-0.5C 181.292,1.92006 181.626,4.2534 182.5,6.5C 181.675,7.38568 180.675,7.71901 179.5,7.5C 179.027,10.6965 178.361,13.8632 177.5,17C 177.833,18 178.167,19 178.5,20C 177.571,21.0769 176.904,22.2436 176.5,23.5C 175.9,22.0998 174.9,21.0998 173.5,20.5C 173.5,19.8333 173.167,19.5 172.5,19.5C 169.769,12.9729 167.435,6.30625 165.5,-0.5 Z"/></g>
<g><path style="opacity:1" fill="#c9cecf" d="M 22.5,5.5 C 20.2143,5.40505 18.2143,4.73838 16.5,3.5C 22.3616,1.77041 28.3616,1.27041 34.5,2C 30.3238,2.67106 26.3238,3.83772 22.5,5.5 Z"/></g>
<g><path style="opacity:0.133" fill="#070d0b" d="M 38.5,3.5 C 40.1992,3.33982 41.8659,3.50649 43.5,4C 46.2909,6.52945 48.9576,9.19611 51.5,12C 50.9056,12.4643 50.2389,12.631 49.5,12.5C 40.366,5.6791 31.366,5.84577 22.5,13C 23.0944,13.4643 23.7611,13.631 24.5,13.5C 28.99,14.2755 33.3234,15.7755 37.5,18C 38.8613,19.5843 39.528,21.4176 39.5,23.5C 37.0908,20.1154 33.7575,17.9488 29.5,17C 25.2287,15.677 22.062,16.8437 20,20.5C 17.0183,28.3792 18.5183,35.2126 24.5,41C 26.3453,42.128 28.3453,42.628 30.5,42.5C 30.5,42.8333 30.5,43.1667 30.5,43.5C 23.1351,44.3217 18.1351,41.3217 15.5,34.5C 14.8902,33.609 14.5569,32.609 14.5,31.5C 14.5,31.1667 14.5,30.8333 14.5,30.5C 14.1817,25.3409 14.8483,20.3409 16.5,15.5C 19.3021,12.5242 21.9688,9.35751 24.5,6C 27.1057,6.41957 29.7724,6.08623 32.5,5C 29.9365,4.23703 29.9365,3.73703 32.5,3.5C 34.4029,4.35312 36.4029,4.35312 38.5,3.5 Z"/></g>
<g><path style="opacity:1" fill="#17d8b4" d="M 181.5,-0.5 C 182.5,-0.5 183.5,-0.5 184.5,-0.5C 184.5,-0.166667 184.5,0.166667 184.5,0.5C 186.142,5.0664 187.475,9.73307 188.5,14.5C 188.27,17.6944 188.936,20.6944 190.5,23.5C 189.963,24.7412 189.296,25.9079 188.5,27C 189.809,30.6315 189.476,34.1315 187.5,37.5C 186.808,36.9747 186.308,36.3081 186,35.5C 184.211,35.6225 182.378,35.6225 180.5,35.5C 179.041,31.5267 177.707,27.5267 176.5,23.5C 176.904,22.2436 177.571,21.0769 178.5,20C 178.167,19 177.833,18 177.5,17C 178.361,13.8632 179.027,10.6965 179.5,7.5C 180.675,7.71901 181.675,7.38568 182.5,6.5C 181.626,4.2534 181.292,1.92006 181.5,-0.5 Z"/></g>
<g><path style="opacity:1" fill="#8d9791" d="M 16.5,3.5 C 18.2143,4.73838 20.2143,5.40505 22.5,5.5C 21.8333,6.83333 20.8333,7.83333 19.5,8.5C 16.2869,8.81 13.2869,8.47667 10.5,7.5C 12.2048,5.80789 14.2048,4.47456 16.5,3.5 Z"/></g>
<g><path style="opacity:1" fill="#17d9b5" d="M 116.5,23.5 C 116.5,24.1667 116.5,24.8333 116.5,25.5C 116.06,27.8439 115.06,29.8439 113.5,31.5C 112.624,31.6309 111.957,31.2975 111.5,30.5C 113.586,27.3215 113.92,23.9882 112.5,20.5C 112.977,19.5224 113.643,18.6891 114.5,18C 113.551,17.3828 112.718,17.5494 112,18.5C 111.751,17.376 111.251,16.376 110.5,15.5C 109.833,17.5 109.167,19.5 108.5,21.5C 107.833,18.8333 107.167,16.1667 106.5,13.5C 105.604,14.5063 104.938,14.5063 104.5,13.5C 105.747,11.677 106.414,9.67702 106.5,7.5C 108.094,7.08049 109.594,6.41382 111,5.5C 114.213,7.15424 117.046,6.8209 119.5,4.5C 118.271,3.71893 116.938,3.21893 115.5,3C 119.222,2.76182 122.889,2.26182 126.5,1.5C 127.308,1.80762 127.975,2.30762 128.5,3C 133.155,3.49915 137.821,3.66582 142.5,3.5C 142.704,6.51763 143.037,9.51763 143.5,12.5C 133.451,12.8383 123.451,12.8383 113.5,12.5C 115.09,15.9466 116.09,19.6133 116.5,23.5 Z"/></g>
<g><path style="opacity:1" fill="#2ccbac" d="M 49.5,12.5 C 55.3187,19.5549 56.9853,27.5549 54.5,36.5C 54.1667,36.5 53.8333,36.5 53.5,36.5C 53.5,35.5 53.5,34.5 53.5,33.5C 54.6351,24.2685 50.9685,17.7685 42.5,14C 37.4814,13.6652 32.4814,13.1652 27.5,12.5C 26.2739,12.5195 25.2739,12.8529 24.5,13.5C 23.7611,13.631 23.0944,13.4643 22.5,13C 31.366,5.84577 40.366,5.6791 49.5,12.5 Z"/></g>
<g><path style="opacity:1" fill="#265046" d="M 10.5,7.5 C 13.2869,8.47667 16.2869,8.81 19.5,8.5C 18.2271,10.7128 17.2271,13.0462 16.5,15.5C 14.8483,20.3409 14.1817,25.3409 14.5,30.5C 13.8333,30.5 13.5,30.1667 13.5,29.5C 13.8226,25.774 13.4892,22.1073 12.5,18.5C 10.3802,19.8715 9.38021,19.2048 9.5,16.5C 7.32599,16.9202 5.32599,16.9202 3.5,16.5C 2.71237,17.7701 1.71237,18.7701 0.5,19.5C 1.64174,15.8832 3.30841,12.5498 5.5,9.5C 6.11742,9.61071 6.61742,9.94404 7,10.5C 8.0391,9.2899 9.20577,8.2899 10.5,7.5 Z"/></g>
<g><path style="opacity:0.101" fill="#010202" d="M 131.5,20.5 C 137.234,19.1747 143.068,19.1747 149,20.5C 149.5,30.1609 149.666,39.8276 149.5,49.5C 149.483,51.5648 149.15,53.5648 148.5,55.5C 145.996,57.8442 142.996,59.3442 139.5,60C 128.634,62.0364 118.634,60.0364 109.5,54C 106.278,51.0444 103.944,47.5444 102.5,43.5C 104.139,45.8061 106.139,47.8061 108.5,49.5C 110.861,53.0181 114.195,55.0181 118.5,55.5C 123.897,57.4426 129.564,57.9426 135.5,57C 139.035,56.3367 142.035,54.8367 144.5,52.5C 145.815,47.3197 145.815,41.9864 144.5,36.5C 143.893,36.6236 143.56,36.9569 143.5,37.5C 143.167,38.5 142.5,39.1667 141.5,39.5C 138.375,38.5206 135.042,38.1872 131.5,38.5C 131.5,37.5 131.5,36.5 131.5,35.5C 136.167,35.5 140.833,35.5 145.5,35.5C 145.5,30.5 145.5,25.5 145.5,20.5C 140.833,20.5 136.167,20.5 131.5,20.5 Z"/></g>
<g><path style="opacity:0.15" fill="#050b0a" d="M 159.5,20.5 C 163.634,19.5151 167.968,19.1818 172.5,19.5C 173.167,19.5 173.5,19.8333 173.5,20.5C 174.696,23.4214 175.696,26.4214 176.5,29.5C 174.95,33.1684 173.617,37.0018 172.5,41C 175.146,41.4974 177.813,41.6641 180.5,41.5C 176.919,42.4644 172.586,43.131 167.5,43.5C 168.96,37.5335 170.293,31.5335 171.5,25.5C 172.451,24.0813 172.784,22.4147 172.5,20.5C 168.167,20.5 163.833,20.5 159.5,20.5 Z"/></g>
<g><path style="opacity:1" fill="#156a58" d="M 24.5,13.5 C 25.2739,12.8529 26.2739,12.5195 27.5,12.5C 32.4814,13.1652 37.4814,13.6652 42.5,14C 50.9685,17.7685 54.6351,24.2685 53.5,33.5C 51.8944,30.5315 49.3944,28.5315 46,27.5C 45.6667,27.8333 45.3333,28.1667 45,28.5C 44.5017,26.4556 43.335,25.1223 41.5,24.5C 40.8897,22.1497 40.5563,22.483 40.5,25.5C 39.6618,25.1583 39.3284,24.4916 39.5,23.5C 39.528,21.4176 38.8613,19.5843 37.5,18C 33.3234,15.7755 28.99,14.2755 24.5,13.5 Z"/></g>
<g><path style="opacity:1" fill="#1e6655" d="M 13.5,29.5 C 12.596,28.791 12.2627,27.791 12.5,26.5C 9.91099,25.8727 7.41099,25.8727 5,26.5C 2.75162,26.1049 0.918284,25.1049 -0.5,23.5C -0.5,22.5 -0.5,21.5 -0.5,20.5C 0.166667,20.5 0.5,20.1667 0.5,19.5C 1.71237,18.7701 2.71237,17.7701 3.5,16.5C 5.32599,16.9202 7.32599,16.9202 9.5,16.5C 9.38021,19.2048 10.3802,19.8715 12.5,18.5C 13.4892,22.1073 13.8226,25.774 13.5,29.5 Z"/></g>
<g><path style="opacity:0.19" fill="#3fa08e" d="M 131.5,20.5 C 136.167,20.5 140.833,20.5 145.5,20.5C 145.5,25.5 145.5,30.5 145.5,35.5C 140.833,35.5 136.167,35.5 131.5,35.5C 130.167,30.5 130.167,25.5 131.5,20.5 Z"/></g>
<g><path style="opacity:1" fill="#18d6b3" d="M 131.5,21.5 C 135.833,21.5 140.167,21.5 144.5,21.5C 144.5,25.8333 144.5,30.1667 144.5,34.5C 140.167,34.5 135.833,34.5 131.5,34.5C 131.5,30.1667 131.5,25.8333 131.5,21.5 Z"/></g>
<g><path style="opacity:1" fill="#207e6b" d="M -0.5,23.5 C 0.918284,25.1049 2.75162,26.1049 5,26.5C 7.41099,25.8727 9.91099,25.8727 12.5,26.5C 12.2627,27.791 12.596,28.791 13.5,29.5C 13.5,30.1667 13.8333,30.5 14.5,30.5C 14.5,30.8333 14.5,31.1667 14.5,31.5C 12.5953,31.0717 10.762,31.7384 9,33.5C 7.98398,32.3659 7.31732,32.6992 7,34.5C 3.91827,30.0504 2.41827,30.5504 2.5,36C 2.62915,37.9806 3.29582,39.6472 4.5,41C 3.18543,42.3946 3.51877,43.3946 5.5,44C 4.94404,44.3826 4.61071,44.8826 4.5,45.5C 4.16667,45.5 3.83333,45.5 3.5,45.5C 2.01671,42.5672 0.683376,39.5672 -0.5,36.5C -0.5,32.1667 -0.5,27.8333 -0.5,23.5 Z"/></g>
<g><path style="opacity:1" fill="#19856f" d="M 41.5,24.5 C 43.335,25.1223 44.5017,26.4556 45,28.5C 45.3333,28.1667 45.6667,27.8333 46,27.5C 49.3944,28.5315 51.8944,30.5315 53.5,33.5C 53.5,34.5 53.5,35.5 53.5,36.5C 52.2652,36.7214 51.2652,37.3881 50.5,38.5C 45.5082,36.8588 42.8415,33.5255 42.5,28.5C 42.5674,27.0413 42.2341,25.7079 41.5,24.5 Z"/></g>
<g><path style="opacity:1" fill="#1cd4b2" d="M 106.5,7.5 C 106.414,9.67702 105.747,11.677 104.5,13.5C 104.938,14.5063 105.604,14.5063 106.5,13.5C 107.167,16.1667 107.833,18.8333 108.5,21.5C 109.167,19.5 109.833,17.5 110.5,15.5C 111.251,16.376 111.751,17.376 112,18.5C 112.718,17.5494 113.551,17.3828 114.5,18C 113.643,18.6891 112.977,19.5224 112.5,20.5C 113.92,23.9882 113.586,27.3215 111.5,30.5C 111.957,31.2975 112.624,31.6309 113.5,31.5C 113.821,33.0481 114.821,33.7148 116.5,33.5C 116.5,35.1667 116.5,36.8333 116.5,38.5C 115.5,38.5 114.5,38.5 113.5,38.5C 113.48,40.143 114.147,41.4763 115.5,42.5C 114.689,43.2164 114.022,44.0497 113.5,45C 114.952,46.5648 116.619,47.8982 118.5,49C 115.087,49.9716 111.753,50.1383 108.5,49.5C 106.139,47.8061 104.139,45.8061 102.5,43.5C 99.7045,36.099 98.8711,28.4323 100,20.5C 101.138,15.5574 103.305,11.2241 106.5,7.5 Z"/></g>
<g><path style="opacity:1" fill="#23c8a9" d="M 188.5,14.5 C 191.879,22.9692 194.879,31.6358 197.5,40.5C 195.907,39.6521 194.74,38.3187 194,36.5C 193.694,38.9063 192.861,41.073 191.5,43C 192.148,44.4397 192.481,45.9397 192.5,47.5C 191.5,47.5 190.5,47.5 189.5,47.5C 188.833,44.8333 188.167,42.1667 187.5,39.5C 186.167,39.5 184.833,39.5 183.5,39.5C 183.657,40.8734 183.49,42.2068 183,43.5C 180.931,44.2638 178.764,44.7638 176.5,45C 178.301,45.3173 178.634,45.984 177.5,47C 175.926,47.6987 174.593,47.3654 173.5,46C 174.167,45.6667 174.833,45.3333 175.5,45C 173.527,44.5045 171.527,44.3379 169.5,44.5C 169.313,46.5643 168.813,48.5643 168,50.5C 166.238,49.9262 164.405,49.5928 162.5,49.5C 163.401,47.2729 165.067,46.2729 167.5,46.5C 167.5,45.5 167.5,44.5 167.5,43.5C 172.586,43.131 176.919,42.4644 180.5,41.5C 178.572,37.7146 177.238,33.7146 176.5,29.5C 175.696,26.4214 174.696,23.4214 173.5,20.5C 174.9,21.0998 175.9,22.0998 176.5,23.5C 177.707,27.5267 179.041,31.5267 180.5,35.5C 182.378,35.6225 184.211,35.6225 186,35.5C 186.308,36.3081 186.808,36.9747 187.5,37.5C 189.476,34.1315 189.809,30.6315 188.5,27C 189.296,25.9079 189.963,24.7412 190.5,23.5C 188.936,20.6944 188.27,17.6944 188.5,14.5 Z"/></g>
<g><path style="opacity:1" fill="#1a9d84" d="M 14.5,31.5 C 14.5569,32.609 14.8902,33.609 15.5,34.5C 14.8761,34.9169 14.5427,35.5836 14.5,36.5C 15.3509,38.8535 15.8509,41.1868 16,43.5C 12.9433,44.4505 9.77659,44.7839 6.5,44.5C 6.5,45.5 6.5,46.5 6.5,47.5C 5.5,47.1667 4.83333,46.5 4.5,45.5C 4.61071,44.8826 4.94404,44.3826 5.5,44C 3.51877,43.3946 3.18543,42.3946 4.5,41C 3.29582,39.6472 2.62915,37.9806 2.5,36C 2.41827,30.5504 3.91827,30.0504 7,34.5C 7.31732,32.6992 7.98398,32.3659 9,33.5C 10.762,31.7384 12.5953,31.0717 14.5,31.5 Z"/></g>
<g><path style="opacity:0.48" fill="#217065" d="M 143.5,37.5 C 143.56,36.9569 143.893,36.6236 144.5,36.5C 145.815,41.9864 145.815,47.3197 144.5,52.5C 144.821,47.3054 144.487,42.3054 143.5,37.5 Z"/></g>
<g><path style="opacity:0.144" fill="#000000" d="M 96.5,41.5 C 97.8333,41.5 99.1667,41.5 100.5,41.5C 100.5,47.5 100.5,53.5 100.5,59.5C 87.8333,59.5 75.1667,59.5 62.5,59.5C 62.5,58.5 62.5,57.5 62.5,56.5C 73.8333,56.5 85.1667,56.5 96.5,56.5C 96.5,51.8333 96.5,47.1667 96.5,42.5C 96.5,42.1667 96.5,41.8333 96.5,41.5 Z"/></g>
<g><path style="opacity:1" fill="#17d8b5" d="M 171.5,25.5 C 170.293,31.5335 168.96,37.5335 167.5,43.5C 167.5,44.5 167.5,45.5 167.5,46.5C 165.067,46.2729 163.401,47.2729 162.5,49.5C 162.19,50.7383 161.69,50.7383 161,49.5C 160.51,50.7932 160.343,52.1266 160.5,53.5C 159.626,51.31 157.959,50.31 155.5,50.5C 154.545,53.2627 154.378,52.2627 155,47.5C 158.333,46.1667 158.333,44.8333 155,43.5C 154.251,42.365 154.417,41.365 155.5,40.5C 157.483,41.982 159.316,43.6487 161,45.5C 161.014,43.5292 160.681,41.5292 160,39.5C 159.683,41.3008 159.016,41.6341 158,40.5C 157.922,38.3435 157.755,36.3435 157.5,34.5C 159.361,33.4717 160.695,31.9717 161.5,30C 163.608,29.6401 165.608,28.9734 167.5,28C 168.337,26.9887 168.67,25.8221 168.5,24.5C 166.473,24.3379 164.473,24.5045 162.5,25C 163.167,25.3333 163.833,25.6667 164.5,26C 158.849,30.4889 157.182,29.3222 159.5,22.5C 163.445,21.5091 167.445,21.1758 171.5,21.5C 171.5,22.8333 171.5,24.1667 171.5,25.5 Z"/></g>
<g><path style="opacity:1" fill="#1ba289" d="M 42.5,28.5 C 42.8415,33.5255 45.5082,36.8588 50.5,38.5C 51.2652,37.3881 52.2652,36.7214 53.5,36.5C 53.8333,36.5 54.1667,36.5 54.5,36.5C 53.8678,40.4314 52.2011,43.7647 49.5,46.5C 45.6652,46.5858 42.3318,44.9192 39.5,41.5C 42.0385,37.5377 43.0385,33.2043 42.5,28.5 Z"/></g>
<g><path style="opacity:1" fill="#1ed2b1" d="M 116.5,25.5 C 116.457,28.9099 116.957,32.2432 118,35.5C 120.733,41.7816 125.233,44.115 131.5,42.5C 132.167,42.5 132.833,42.5 133.5,42.5C 136.097,42.7208 136.097,43.2208 133.5,44C 130.443,44.2565 127.443,44.7565 124.5,45.5C 123.373,47.2695 123.873,48.6028 126,49.5C 128.024,47.1157 130.191,46.949 132.5,49C 129.065,49.8843 125.732,51.051 122.5,52.5C 121.614,53.325 121.281,54.325 121.5,55.5C 120.5,55.5 119.5,55.5 118.5,55.5C 114.195,55.0181 110.861,53.0181 108.5,49.5C 111.753,50.1383 115.087,49.9716 118.5,49C 116.619,47.8982 114.952,46.5648 113.5,45C 114.022,44.0497 114.689,43.2164 115.5,42.5C 114.147,41.4763 113.48,40.143 113.5,38.5C 114.5,38.5 115.5,38.5 116.5,38.5C 116.5,36.8333 116.5,35.1667 116.5,33.5C 114.821,33.7148 113.821,33.0481 113.5,31.5C 115.06,29.8439 116.06,27.8439 116.5,25.5 Z"/></g>
<g><path style="opacity:1" fill="#18d8b5" d="M 197.5,40.5 C 198.703,44.1101 199.703,47.7768 200.5,51.5C 200.5,52.8333 200.5,54.1667 200.5,55.5C 186.893,55.3374 173.56,54.6707 160.5,53.5C 160.343,52.1266 160.51,50.7932 161,49.5C 161.69,50.7383 162.19,50.7383 162.5,49.5C 164.405,49.5928 166.238,49.9262 168,50.5C 168.813,48.5643 169.313,46.5643 169.5,44.5C 171.527,44.3379 173.527,44.5045 175.5,45C 174.833,45.3333 174.167,45.6667 173.5,46C 174.593,47.3654 175.926,47.6987 177.5,47C 178.634,45.984 178.301,45.3173 176.5,45C 178.764,44.7638 180.931,44.2638 183,43.5C 183.49,42.2068 183.657,40.8734 183.5,39.5C 184.833,39.5 186.167,39.5 187.5,39.5C 188.167,42.1667 188.833,44.8333 189.5,47.5C 190.5,47.5 191.5,47.5 192.5,47.5C 192.481,45.9397 192.148,44.4397 191.5,43C 192.861,41.073 193.694,38.9063 194,36.5C 194.74,38.3187 195.907,39.6521 197.5,40.5 Z"/></g>
<g><path style="opacity:1" fill="#1ed0b1" d="M 143.5,37.5 C 144.487,42.3054 144.821,47.3054 144.5,52.5C 142.035,54.8367 139.035,56.3367 135.5,57C 129.564,57.9426 123.897,57.4426 118.5,55.5C 119.5,55.5 120.5,55.5 121.5,55.5C 121.281,54.325 121.614,53.325 122.5,52.5C 125.732,51.051 129.065,49.8843 132.5,49C 130.191,46.949 128.024,47.1157 126,49.5C 123.873,48.6028 123.373,47.2695 124.5,45.5C 127.443,44.7565 130.443,44.2565 133.5,44C 136.097,43.2208 136.097,42.7208 133.5,42.5C 136.076,41.5122 138.743,40.5122 141.5,39.5C 142.5,39.1667 143.167,38.5 143.5,37.5 Z"/></g>
<g><path style="opacity:1" fill="#27bfa1" d="M 41.5,24.5 C 42.2341,25.7079 42.5674,27.0413 42.5,28.5C 43.0385,33.2043 42.0385,37.5377 39.5,41.5C 42.3318,44.9192 45.6652,46.5858 49.5,46.5C 41.6515,56.0052 31.6515,59.3385 19.5,56.5C 24.3165,55.6739 29.3165,55.1739 34.5,55C 32.5,54.6667 30.5,54.3333 28.5,54C 33.2508,53.8113 37.9174,53.1447 42.5,52C 37.3817,51.7241 32.7151,50.2241 28.5,47.5C 31.5273,46.639 34.194,45.139 36.5,43C 34.5753,43.1349 32.5753,43.3016 30.5,43.5C 30.5,43.1667 30.5,42.8333 30.5,42.5C 38.1554,39.54 41.4887,33.8733 40.5,25.5C 40.5563,22.483 40.8897,22.1497 41.5,24.5 Z"/></g>
<g><path style="opacity:1" fill="#1cc6a6" d="M 15.5,34.5 C 18.1351,41.3217 23.1351,44.3217 30.5,43.5C 32.5753,43.3016 34.5753,43.1349 36.5,43C 34.194,45.139 31.5273,46.639 28.5,47.5C 32.7151,50.2241 37.3817,51.7241 42.5,52C 37.9174,53.1447 33.2508,53.8113 28.5,54C 30.5,54.3333 32.5,54.6667 34.5,55C 29.3165,55.1739 24.3165,55.6739 19.5,56.5C 13.8305,55.1859 9.49715,52.1859 6.5,47.5C 6.5,46.5 6.5,45.5 6.5,44.5C 9.77659,44.7839 12.9433,44.4505 16,43.5C 15.8509,41.1868 15.3509,38.8535 14.5,36.5C 14.5427,35.5836 14.8761,34.9169 15.5,34.5 Z"/></g>
<g><path style="opacity:1" fill="#2aceaf" d="M 159.5,20.5 C 163.833,20.5 168.167,20.5 172.5,20.5C 172.784,22.4147 172.451,24.0813 171.5,25.5C 171.5,24.1667 171.5,22.8333 171.5,21.5C 167.445,21.1758 163.445,21.5091 159.5,22.5C 157.182,29.3222 158.849,30.4889 164.5,26C 163.833,25.6667 163.167,25.3333 162.5,25C 164.473,24.5045 166.473,24.3379 168.5,24.5C 168.67,25.8221 168.337,26.9887 167.5,28C 165.608,28.9734 163.608,29.6401 161.5,30C 160.695,31.9717 159.361,33.4717 157.5,34.5C 157.755,36.3435 157.922,38.3435 158,40.5C 159.016,41.6341 159.683,41.3008 160,39.5C 160.681,41.5292 161.014,43.5292 161,45.5C 159.316,43.6487 157.483,41.982 155.5,40.5C 154.417,41.365 154.251,42.365 155,43.5C 158.333,44.8333 158.333,46.1667 155,47.5C 154.378,52.2627 154.545,53.2627 155.5,50.5C 157.959,50.31 159.626,51.31 160.5,53.5C 173.56,54.6707 186.893,55.3374 200.5,55.5C 200.5,54.1667 200.5,52.8333 200.5,51.5C 201.339,52.6412 202.006,53.9745 202.5,55.5C 184.512,56.4995 166.512,56.8329 148.5,56.5C 148.5,56.1667 148.5,55.8333 148.5,55.5C 149.15,53.5648 149.483,51.5648 149.5,49.5C 152.435,39.6947 155.768,30.028 159.5,20.5 Z"/></g>
<g><path style="opacity:1" fill="#37bda6" d="M 61.5,2.5 C 63.3804,20.0023 63.7137,37.669 62.5,55.5C 73.5,55.5 84.5,55.5 95.5,55.5C 95.5,51.1667 95.5,46.8333 95.5,42.5C 95.8333,42.5 96.1667,42.5 96.5,42.5C 96.5,47.1667 96.5,51.8333 96.5,56.5C 85.1667,56.5 73.8333,56.5 62.5,56.5C 61.5032,38.6744 61.1699,20.6744 61.5,2.5 Z"/></g>
</svg>
