<svg version="1.2" xmlns="http://www.w3.org/2000/svg" viewBox="0 0 1592 638" width="1592" height="638">
	<title>wipro_new_logo</title>
	<style>
		.s0 { fill: #7ec45f } 
		.s1 { fill: #355493 } 
		.s2 { fill: #ffcd2e } 
		.s3 { fill: #be266a } 
		.s4 { fill: #3498b3 } 
		.s5 { fill: #f57f2a } 
		.s6 { fill: #746fa7 } 
		.s7 { fill: #351a55 } 
	</style>
	<g id="Layer_1-2">
		<g id="Wipro_Secondary_Logo_Color_RGB">
			<path fill-rule="evenodd" class="s0" d="m1245.2 61.8c-17.1 0-30.9-13.8-30.9-30.9 0-17.1 13.8-30.9 30.9-30.9 17.1 0 30.9 13.8 30.9 30.9 0 17.1-13.8 30.9-30.9 30.9z"/>
			<path fill-rule="evenodd" class="s1" d="m1483.9 209.7c-28.5 0-51.5-23-51.5-51.5 0-28.5 23-51.5 51.5-51.5 28.5 0 51.5 23 51.5 51.5 0 28.5-23 51.5-51.5 51.5z"/>
			<path fill-rule="evenodd" class="s2" d="m1245.2 637.1c-17.1 0-30.9-13.8-30.9-30.9 0-17 13.8-30.9 30.9-30.9 17.1 0 30.9 13.9 30.9 30.9 0 17.1-13.8 30.9-30.9 30.9z"/>
			<path fill-rule="evenodd" class="s3" d="m1483.9 530.4c-28.5 0-51.5-23-51.5-51.5 0-28.5 23-51.5 51.5-51.5 28.5 0 51.5 23 51.5 51.5 0 28.5-23 51.5-51.5 51.5z"/>
			<path class="s4" d="m1409.8 70.6c-5.5 20.8-27 33.2-47.9 27.6-20.9-5.5-33.3-27-27.7-47.9 5.6-20.9 27.1-33.2 48-27.7 20.8 5.6 33.3 27.1 27.6 48z"/>
			<path class="s5" d="m1409.8 586.8c-5.5 20.9-27 33.2-47.9 27.7-20.9-5.6-33.3-27.1-27.7-48 5.6-20.8 27.1-33.2 48-27.6 20.8 5.6 33.2 27 27.6 47.9z"/>
			<path fill-rule="evenodd" class="s6" d="m1579 354.9c-19.9 25.6-56.7 30.1-82.3 10.2-25.6-19.9-30.2-56.6-10.3-82.2 19.9-25.6 56.7-30.2 82.3-10.3 25.6 19.9 30.2 56.7 10.3 82.3z"/>
			<path class="s7" d="m463.6 189.7h67.2v256.8h-67.2zm40.9-114.8c-20.6-5.5-41.8 6.7-47.3 27.4-5.5 20.5 6.7 41.7 27.4 47.2 20.5 5.5 41.7-6.7 47.2-27.3 5.5-20.6-6.7-41.7-27.3-47.3zm232.1 376.7c-16.2 0.2-32.2-3-47.1-9.4-13.5-5.8-25.2-15.3-33.7-27.3v159.4h-65.3v-384.6h64.7v35.6c8.5-12.6 20.1-23 33.8-29.9 14.5-7.4 30.7-11.2 47.1-11 16 0 31.8 3.1 46.6 9.3 14.8 6.2 28.3 15.3 39.4 26.8 11.8 12.3 21.1 26.7 27.4 42.5 7 17.5 10.5 36.3 10.2 55.1 0.3 19-3.2 37.8-10.4 55.4-6.5 15.6-15.9 29.9-27.7 42.1-22.3 23.1-53 36.1-85.1 36.1zm-13.3-61.8c9.5 0.1 18.9-1.8 27.6-5.7 8.5-3.7 16.1-8.9 22.6-15.4 6.6-6.6 11.7-14.3 15.3-22.9 7.2-18.1 7.2-38.4 0-56.5-3.6-8.6-8.7-16.3-15.3-22.9-6.5-6.5-14.1-11.7-22.6-15.4-8.7-3.9-18.1-5.8-27.6-5.7-9.7-0.1-19.4 1.8-28.3 5.7-8.4 3.6-16.1 8.9-22.6 15.4-6.4 6.7-11.5 14.5-15 23.1-3.6 8.9-5.5 18.4-5.4 28.1-0.2 19 7.2 37.4 20.4 51.1 13.4 13.6 31.8 21.3 50.9 21.2v-0.1zm183.8-200.2h64.7v39.5c5.3-14 15.1-25.8 27.8-33.6 13.2-7.3 28.1-11 43.1-10.6 8.1 0 16.2 0.9 24 2.9 6.7 1.5 13.1 3.9 19.2 7l-23.7 64.7c-4.4-2.9-9.1-5.1-14.2-6.4-6.5-1.8-13.2-2.7-19.9-2.6q-25.3 0-40.5 14.2-15.2 14.1-15.2 46.2v135.5h-65.3zm324 261.9c-18.5 0.1-36.8-3.5-53.8-10.6-16-6.7-30.7-16.4-43-28.7-25.1-25-39.1-59-38.9-94.4-0.1-17.9 3.3-35.6 10.2-52.1 6.6-15.9 16.3-30.3 28.5-42.4 25.9-25.3 60.7-39.3 96.8-38.9 18.4-0.1 36.6 3.5 53.5 10.6 16.1 6.7 30.8 16.3 43.3 28.5 25.2 25 39.4 59.1 39.2 94.6 0.1 17.8-3.4 35.5-10.4 51.8-6.8 15.8-16.5 30.2-28.6 42.5-12.3 12.3-26.9 22.1-43.1 28.7-17 7-35.4 10.5-53.8 10.4zm0.5-62.3c9.5 0.1 18.9-1.9 27.6-5.8 8.3-3.6 15.9-8.7 22.3-15.2 6.5-6.4 11.5-14.1 15-22.6 3.7-8.9 5.6-18.5 5.5-28.2 0-9.7-1.8-19.2-5.5-28.1-3.4-8.5-8.5-16.3-15-22.8-6.4-6.4-14-11.6-22.3-15.2-17.6-7.7-37.6-7.7-55.2 0-8.3 3.6-15.9 8.8-22.3 15.2-6.4 6.5-11.5 14.3-15 22.8-3.6 8.9-5.5 18.4-5.4 28.1-0.1 9.7 1.8 19.3 5.4 28.2 3.5 8.5 8.6 16.2 15 22.6 6.4 6.4 14 11.6 22.3 15.2 8.7 3.8 18.1 5.8 27.6 5.6v0.2zm-1231.6-199.8h66.5l51.8 163.8 60.7-163.8h58.5l59.9 163.8 53.6-163.8h66.6l-87 256.5h-61.7l-61.4-167.2-61.7 167.2h-62.7z"/>
		</g>
	</g>
</svg>