<?xml version="1.0" encoding="utf-8"?>
<svg xmlns="http://www.w3.org/2000/svg" viewBox="124.6792 182.2673 178.9753 55.8824" width="178.975px" height="55.8824px">
  <path fill="#3c52d9" d="M 179.949 205.463 C 180.922 206.453 180.922 208.057 179.949 209.046 L 169.762 219.408 C 169.118 220.068 168.057 220.068 167.413 219.408 L 155.529 207.319 C 155.062 206.844 154.799 206.199 154.799 205.527 L 154.799 183.96 C 154.799 182.455 156.588 181.701 157.634 182.766 L 179.948 205.464 L 179.949 205.463 Z M 134.98 218.771 C 135.946 219.761 137.537 219.761 138.503 218.771 L 149.793 207.286 C 150.26 206.811 150.522 206.166 150.522 205.494 L 150.522 183.98 C 150.522 182.475 148.733 181.721 147.687 182.785 L 125.409 205.45 C 124.436 206.44 124.436 208.044 125.409 209.034 L 134.98 218.771 Z" transform="matrix(1, 0, 0, 1, 0, 1.4210854715202004e-14)"/>
  <g fillrule="nonzero" transform="matrix(1, 0, 0, 1, 124.6790027123541, 182.26700100700555)">
    <rect width="18.967" height="19.118" x="18.469" y="32.859" fill="#2ef2ff" rx="3.099" transform="rotate(315 27.952 42.418)"/>
  </g>
  <text style="fill: rgb(245, 255, 243); font-family: Arial, sans-serif; font-size: 31px; font-weight: 700; white-space: pre;" transform="matrix(0.9472790360450746, 0, 0, 1.1043599843978884, 9.154379981076424, -20.551800080415582)" x="185.14" y="219.269">Camel Q</text>
</svg>